<?xml version="1.0" encoding="utf-8"?>
<!-- Generator: Adobe Illustrator 23.0.3, SVG Export Plug-In . SVG Version: 6.00 Build 0)  -->
<svg version="1.1" id="Layer_1" xmlns="http://www.w3.org/2000/svg" xmlns:xlink="http://www.w3.org/1999/xlink" x="0px" y="0px"
	 viewBox="0 0 618 618" style="enable-background:new 0 0 618 618;" xml:space="preserve">
<style type="text/css">
	.st0{fill:url(#SVGID_1_);}
</style>
<linearGradient id="SVGID_1_" gradientUnits="userSpaceOnUse" x1="18.9795" y1="308.3188" x2="598.355" y2="308.3188">
	<stop  offset="0" style="stop-color:#804D85"/>
	<stop  offset="1" style="stop-color:#41BDBD"/>
</linearGradient>
<path class="st0" d="M309.9,206.7H67.3c-20,0-36.1,16.2-36.2,36.2v308.6c0,20,16.2,36.1,36.2,36.2h242.6c20,0,36.1-16.2,36.2-36.2
	V242.9C346.1,222.9,329.9,206.8,309.9,206.7z M323.6,551.5c0,7.6-6.1,13.7-13.7,13.7H67.3c-7.6,0-13.7-6.1-13.7-13.7V242.9
	c0-7.6,6.1-13.7,13.7-13.7h242.6c7.6,0,13.7,6.1,13.7,13.7V551.5z M188.6,390.7c-32.3,0-58.4,26.1-58.4,58.4s26.1,58.4,58.4,58.4
	c32.3,0,58.4-26.1,58.4-58.4C247,416.9,220.9,390.7,188.6,390.7z M188.6,485.1c-19.9,0-36-16.1-36-35.9s16.1-36,35.9-36
	s35.9,16.1,35.9,36C224.6,468.9,208.5,485,188.6,485.1L188.6,485.1z M188.6,348.3c-55.7,0-100.9,45.2-100.9,100.9
	c0,55.7,45.2,100.9,100.9,100.9c55.7,0,100.9-45.2,100.9-100.9C289.4,393.4,244.3,348.3,188.6,348.3z M188.6,527.5
	c-43.3,0-78.4-35.1-78.4-78.4c0-43.3,35.1-78.4,78.4-78.4c43.3,0,78.4,35.1,78.4,78.4C267,492.4,231.9,527.5,188.6,527.5z M99,287.7
	h117c6.2,0,11.2-5,11.2-11.2c0-6.2-5-11.2-11.2-11.2H99c-6.2,0-11.2,5-11.2,11.2C87.8,282.7,92.8,287.7,99,287.7z M270.3,251.1
	c-14,0-25.4,11.4-25.4,25.4c0,14,11.4,25.4,25.4,25.4c14,0,25.4-11.4,25.4-25.4C295.7,262.4,284.3,251.1,270.3,251.1z M270.3,279.4
	c-1.6,0-2.9-1.3-2.9-2.9c0-1.6,1.3-2.9,2.9-2.9c1.6,0,2.9,1.3,2.9,2.9C273.2,278.1,271.9,279.4,270.3,279.4z M587.1,387.3H531
	c14.2-2.4,25.6-13.2,28.7-27.4l20.1-90.6c0.7-3.3-0.1-6.8-2.2-9.5c-2.1-2.7-5.3-4.2-8.8-4.2H557c8.2-13.1,5.7-30.3-5.8-40.6
	c9.9-8.8,13.2-22.8,8.5-35.2c-4.7-12.4-16.6-20.5-29.8-20.5h-80.4c-13.2,0-25.1,8.2-29.8,20.5c-4.7,12.4-1.4,26.4,8.5,35.2
	c-11.5,10.3-14,27.4-5.8,40.6h-11.9c-3.4,0-6.6,1.5-8.8,4.2c-2.1,2.7-2.9,6.1-2.2,9.5l20.1,90.6c3.1,14.1,14.4,25,28.7,27.4h-56.1
	c-6.2,0-11.2,5-11.2,11.2v36.6c0,6.2,5,11.2,11.2,11.2h12l-23.1,128.1c-1.1,6.1,3,11.9,9.1,13c6.1,1.1,11.9-2.9,13-9.1L427,446.3
	h125.3l23.8,132.1c1.1,6.1,6.9,10.2,13,9.1c6.1-1.1,10.2-6.9,9.1-13l-23.1-128.2h12c6.2,0,11.2-5,11.2-11.2v-36.6
	C598.4,392.4,593.3,387.3,587.1,387.3z M439.9,238.9c0-5.2,4.3-9.5,9.5-9.5h80.4c5.2,0,9.5,4.3,9.5,9.5c0,5.2-4.2,9.5-9.5,9.5h-80.4
	C444.2,248.4,439.9,244.1,439.9,238.9L439.9,238.9z M449.4,181.9h80.4c5.2,0,9.5,4.2,9.5,9.5c0,5.2-4.2,9.5-9.5,9.5h-80.4
	c-5.2,0-9.5-4.2-9.5-9.5C439.9,186.1,444.2,181.9,449.4,181.9z M470.4,278.2h38.5v26.6c-0.1,10.6-8.7,19.1-19.2,19.1
	c-10.6,0-19.2-8.5-19.2-19.1V278.2z M441.5,355.1l-17.1-76.9h23.5v26.6c0.1,22.9,18.8,41.5,41.7,41.5c22.9,0,41.6-18.5,41.7-41.5
	v-26.6h23.5l-17.1,76.9c-1.3,6-6.7,10.3-12.8,10.3h-70.6C448.2,365.4,442.8,361.1,441.5,355.1L441.5,355.1z M575.9,423.9H403.4
	v-14.1h172.5V423.9z M347.1,138.6h-37.5v-57c0-6.2-5-11.2-11.2-11.2h-52.4c-6.2,0-11.2,5-11.2,11.2v57h-55.2
	c10.7-3.7,18.7-12.7,20.9-23.8c2.3-11.1-1.5-22.6-10-30.1c9.8-8.8,13.2-22.8,8.5-35.2c-4.7-12.4-16.6-20.5-29.8-20.5H88.7
	c-13.2,0-25.1,8.2-29.8,20.5c-4.7,12.4-1.3,26.4,8.5,35.2c-8.4,7.6-12.2,19-10,30.1c2.3,11.1,10.2,20.2,20.9,23.8H30.2
	c-6.2,0-11.2,5-11.2,11.2c0,6.2,5,11.2,11.2,11.2h316.8c6.2,0,11.2-5,11.2-11.2C358.3,143.6,353.3,138.6,347.1,138.6z M79.2,108.4
	c0-5.2,4.3-9.5,9.5-9.5h80.4c5.2,0,9.5,4.2,9.5,9.5s-4.3,9.5-9.5,9.5H88.7C83.5,117.9,79.2,113.6,79.2,108.4z M88.7,51.4h80.4
	c5.2,0,9.5,4.2,9.5,9.5c0,5.2-4.3,9.5-9.5,9.5H88.7c-5.2,0-9.5-4.2-9.5-9.5C79.2,55.6,83.5,51.4,88.7,51.4z M257.1,138.6V92.8h30
	v45.8H257.1z"/>
</svg>
